# xmcd
#
# Track frame offsets: 
#        182
#        33595
#        58397
#        82765
#        121972
#
# Disc length: 2097 seconds
#
# Revision: 2
# Processed by: cddbd v1.5.2PL0 Copyright (c) Steve Scherf et al.
# Submitted via: ExactAudioCopy v0.99pb5
#
DISCID=3b082f05
DTITLE=Blue - Friends EP
DYEAR=1996
DGENRE=Darkwave
TTITLE0=Division Dub (Heartical Mix)
TTITLE1=Still Moving (On-U Mix 1)
TTITLE2=Still Moving (The How's Yer Father Mix)
TTITLE3=Still Moving (The How's Yer Mother Mix)
TTITLE4=Still Moving (The Afroart Mix)
EXTD=
EXTT0=
EXTT1=
EXTT2=
EXTT3=
EXTT4=
PLAYORDER=
